<?xml version="1.0" standalone="no"?>
<!DOCTYPE svg PUBLIC "-//W3C//DTD SVG 20010904//EN"
 "http://www.w3.org/TR/2001/REC-SVG-20010904/DTD/svg10.dtd">
<svg version="1.0" xmlns="http://www.w3.org/2000/svg"
 width="311.000000pt" height="119.000000pt" viewBox="0 0 311.000000 119.000000"
 preserveAspectRatio="xMidYMid meet">

<g transform="translate(0.000000,119.000000) scale(0.100000,-0.100000)"
fill="#000000" stroke="none">
<path d="M710 730 l0 -300 90 0 90 0 0 105 0 105 95 0 95 0 0 80 0 80 -95 0
-95 0 0 115 0 115 -90 0 -90 0 0 -300z"/>
<path d="M1090 920 l0 -110 85 0 85 0 0 110 0 110 -85 0 -85 0 0 -110z"/>
<path d="M1480 920 l0 -110 85 0 85 0 0 60 c0 70 10 79 70 61 83 -25 55 -121
-36 -121 -24 0 -24 -2 -24 -85 l0 -85 28 0 c141 3 222 78 222 206 0 79 -29
131 -90 162 -40 20 -59 22 -192 22 l-148 0 0 -110z"/>
<path d="M1940 725 l0 -306 68 3 67 3 0 202 c0 111 3 199 7 195 5 -6 138 -388
138 -398 0 -2 17 -4 38 -4 l39 0 69 205 69 205 3 -205 2 -205 85 0 85 0 0 305
0 305 -103 0 -103 0 -59 -180 c-33 -99 -63 -180 -66 -180 -4 0 -26 57 -50 128
-23 70 -50 151 -61 180 l-19 52 -105 0 -104 0 0 -305z"/>
<path d="M1090 535 l0 -105 85 0 85 0 0 105 0 105 -85 0 -85 0 0 -105z"/>
<path d="M1480 530 l0 -110 85 0 85 0 0 110 0 110 -85 0 -85 0 0 -110z"/>
<path d="M900 370 c0 -15 -7 -20 -25 -20 -16 0 -25 6 -25 15 0 8 -4 15 -10 15
-5 0 -10 -18 -10 -40 0 -42 14 -54 23 -19 8 28 39 21 48 -11 5 -18 7 -11 8 28
1 28 -1 52 -4 52 -3 0 -5 -9 -5 -20z"/>
<path d="M947 372 c-22 -25 -21 -45 3 -67 30 -27 74 -10 78 30 6 49 -48 73
-81 37z m54 -2 c25 -14 24 -46 -2 -60 -37 -20 -67 28 -37 58 15 15 15 15 39 2z"/>
<path d="M1057 383 c-13 -13 -7 -38 13 -51 23 -14 17 -37 -7 -28 -8 3 -11 1
-8 -4 9 -15 35 -12 42 6 3 8 -4 25 -17 40 -21 21 -20 29 3 25 4 0 7 4 7 9 0
11 -23 14 -33 3z"/>
<path d="M1117 384 c-11 -11 -8 -84 3 -84 6 0 10 6 10 14 0 8 9 18 21 21 27 9
22 49 -6 53 -12 2 -24 0 -28 -4z m40 -21 c2 -6 -3 -13 -12 -16 -10 -5 -15 0
-15 14 0 21 21 22 27 2z"/>
<path d="M1193 340 c0 -30 2 -43 4 -27 2 15 2 39 0 55 -2 15 -4 2 -4 -28z"/>
<path d="M1223 383 c12 -3 17 -15 17 -43 0 -21 5 -42 10 -45 6 -4 10 11 10 39
0 34 4 46 18 49 9 3 -3 5 -28 5 -25 0 -37 -2 -27 -5z"/>
<path d="M1305 350 c-10 -22 -15 -43 -12 -47 4 -3 7 -1 7 5 0 18 47 14 54 -4
4 -9 9 -14 12 -11 6 5 -31 97 -39 97 -2 0 -12 -18 -22 -40z m30 1 c3 -5 1 -12
-5 -16 -5 -3 -10 1 -10 9 0 18 6 21 15 7z"/>
<path d="M1501 338 c1 -29 4 -43 6 -30 2 12 8 22 12 22 4 0 16 6 26 14 16 12
17 16 6 30 -7 9 -22 16 -32 16 -16 0 -19 -7 -18 -52z m37 24 c2 -7 -3 -12 -12
-12 -9 0 -16 7 -16 16 0 17 22 14 28 -4z"/>
<path d="M1572 348 c-2 -43 0 -48 23 -54 15 -4 32 -1 40 6 17 14 21 95 5 85
-5 -3 -10 -21 -10 -40 0 -64 -47 -57 -53 8 l-4 42 -1 -47z"/>
<path d="M1670 340 c0 -48 1 -50 28 -49 26 0 26 1 5 9 -27 11 -29 25 -5 39 16
10 16 10 0 11 -26 0 -22 28 5 33 19 4 18 4 -5 6 -27 1 -28 -1 -28 -49z"/>
<path d="M1741 338 c1 -29 4 -43 6 -30 6 28 18 28 37 0 13 -18 16 -19 16 -6 0
9 -4 19 -9 22 -5 3 -7 15 -4 27 6 21 -10 39 -34 39 -9 0 -13 -16 -12 -52z m37
24 c2 -7 -3 -12 -12 -12 -9 0 -16 7 -16 16 0 17 22 14 28 -4z"/>
<path d="M1813 383 c12 -3 17 -15 17 -44 0 -21 5 -39 10 -39 6 0 10 18 10 39
0 29 5 41 18 44 9 3 -3 5 -28 5 -25 0 -37 -2 -27 -5z"/>
<path d="M1895 370 c-38 -42 12 -98 64 -70 39 20 17 90 -28 90 -10 0 -26 -9
-36 -20z m56 0 c25 -14 24 -46 -2 -61 -18 -9 -25 -8 -40 8 -17 17 -18 20 -3
41 17 25 19 26 45 12z"/>
<path d="M2041 339 c2 -51 2 -52 8 -15 5 35 8 37 20 23 14 -17 31 -14 31 5 0
6 -3 8 -7 5 -3 -4 -17 3 -30 15 l-23 21 1 -54z"/>
<path d="M2107 383 c-7 -13 5 -83 14 -83 12 0 12 77 0 85 -5 3 -12 2 -14 -2z"/>
<path d="M2157 372 c-22 -25 -21 -45 3 -67 44 -40 112 23 70 65 -25 25 -52 25
-73 2z m54 -2 c23 -13 25 -43 3 -61 -31 -26 -70 25 -44 56 15 18 16 18 41 5z"/>
<path d="M2340 353 l-1 -38 -29 33 c-39 42 -50 40 -50 -8 0 -23 5 -40 11 -40
7 0 9 10 7 25 -7 33 -1 32 39 -7 l33 -32 0 52 c0 29 -2 52 -5 52 -3 0 -5 -17
-5 -37z"/>
<path d="M2378 383 c6 -2 12 -22 12 -43 0 -21 5 -42 10 -45 6 -4 10 11 10 39
0 34 4 46 18 49 9 3 -1 5 -23 5 -22 0 -34 -2 -27 -5z"/>
<path d="M2463 383 c13 -3 17 -16 19 -51 l1 -47 4 40 c2 22 11 46 20 53 14 10
11 12 -23 11 -21 -1 -31 -3 -21 -6z"/>
<path d="M1382 338 c3 -40 5 -43 33 -45 20 -1 23 0 8 4 -19 4 -23 11 -23 44 0
21 -5 39 -11 39 -6 0 -9 -17 -7 -42z"/>
<path d="M2231 204 c0 -11 3 -14 6 -6 3 7 2 16 -1 19 -3 4 -6 -2 -5 -13z"/>
<path d="M1070 153 c0 -6 8 -17 18 -24 16 -13 16 -13 2 6 -8 11 -16 22 -17 24
-2 2 -3 0 -3 -6z"/>
<path d="M1181 144 c0 -11 3 -14 6 -6 3 7 2 16 -1 19 -3 4 -6 -2 -5 -13z"/>
<path d="M1281 144 c0 -11 3 -14 6 -6 3 7 2 16 -1 19 -3 4 -6 -2 -5 -13z"/>
<path d="M1441 144 c0 -11 3 -14 6 -6 3 7 2 16 -1 19 -3 4 -6 -2 -5 -13z"/>
<path d="M1841 144 c0 -11 3 -14 6 -6 3 7 2 16 -1 19 -3 4 -6 -2 -5 -13z"/>
<path d="M1491 134 c0 -11 3 -14 6 -6 3 7 2 16 -1 19 -3 4 -6 -2 -5 -13z"/>
</g>
</svg>
